<svg width="14" height="13" viewBox="0 0 14 13" fill="none" xmlns="http://www.w3.org/2000/svg">
<path d="M2.536 0.264011C2.36539 0.105035 2.13974 0.0184873 1.90658 0.0226012C1.67342 0.026715 1.45095 0.121169 1.28606 0.286065C1.12116 0.45096 1.02671 0.673423 1.02259 0.906584C1.01848 1.13975 1.10503 1.3654 1.264 1.53601L5.728 6.00001L1.264 10.464C1.17558 10.5464 1.10466 10.6458 1.05547 10.7562C1.00628 10.8666 0.979827 10.9857 0.977694 11.1066C0.975562 11.2274 0.997792 11.3475 1.04306 11.4595C1.08832 11.5716 1.1557 11.6734 1.24116 11.7589C1.32662 11.8443 1.42842 11.9117 1.54049 11.957C1.65255 12.0022 1.77259 12.0245 1.89343 12.0223C2.01427 12.0202 2.13345 11.9937 2.24385 11.9445C2.35425 11.8954 2.45361 11.8244 2.536 11.736L7 7.27201L11.464 11.736C11.5464 11.8244 11.6458 11.8954 11.7562 11.9445C11.8666 11.9937 11.9857 12.0202 12.1066 12.0223C12.2274 12.0245 12.3475 12.0022 12.4595 11.957C12.5716 11.9117 12.6734 11.8443 12.7589 11.7589C12.8443 11.6734 12.9117 11.5716 12.957 11.4595C13.0022 11.3475 13.0244 11.2274 13.0223 11.1066C13.0202 10.9857 12.9937 10.8666 12.9445 10.7562C12.8954 10.6458 12.8244 10.5464 12.736 10.464L8.27201 6.00001L12.736 1.53601C12.895 1.3654 12.9815 1.13975 12.9774 0.906584C12.9733 0.673423 12.8788 0.45096 12.714 0.286065C12.5491 0.121169 12.3266 0.026715 12.0934 0.0226012C11.8603 0.0184873 11.6346 0.105035 11.464 0.264011L7 4.72801L2.536 0.264011Z" fill="white"/>
</svg>
