<svg width="101" height="101" viewBox="0 0 101 101" fill="none" xmlns="http://www.w3.org/2000/svg">
<path d="M13.1857 24.7175C8.13068 32.0315 5.16968 40.9035 5.16968 50.4675C5.16968 75.5115 25.4717 95.8135 50.5157 95.8135C75.5597 95.8135 95.8617 75.5115 95.8617 50.4675C95.8617 25.4235 75.5597 5.12149 50.5157 5.12149C47.6837 5.12149 44.9137 5.38149 42.2257 5.87749" stroke="#0C68F4" stroke-miterlimit="10" stroke-linecap="round" stroke-linejoin="round"/>
<path d="M20.8859 16.1395C19.3589 17.4585 17.9209 18.8775 16.5829 20.3865" stroke="#0C68F4" stroke-miterlimit="10" stroke-linecap="round" stroke-linejoin="round"/>
<path d="M85.898 65.5477C94.2236 45.998 85.1247 23.4005 65.5749 15.0749C46.0252 6.74926 23.4278 15.8482 15.1021 35.3979C6.77649 54.9476 15.8754 77.5451 35.4251 85.8707C54.9749 94.1964 77.5723 85.0974 85.898 65.5477Z" fill="#0C68F4"/>
<path d="M32.744 46.4875L47.339 63.0715L71.221 29.2395" stroke="white" stroke-width="6" stroke-miterlimit="10" stroke-linecap="round" stroke-linejoin="round"/>
</svg>
